PathFileType	4	(X/Y/Z)	T1_P2_NoVision_NoMovement_2_0-733.trc
DataRate	CameraRate	NumFrames	NumMarkers	Units	OrigDataRate	OrigDataStartFrame	OrigNumFrames
60	60	6	27	m	60	641	733
Frame#	Time	RHip			RKnee			RAnkle			RBigToe			RSmallToe			RHeel			LHip			LKnee			LAnkle			LBigToe			LSmallToe			LHeel			Neck			Head			Nose			RShoulder			RElbow			RWrist			RThumb			RIndex			RPinky			LShoulder			LElbow			LWrist			LThumb			LIndex			LPinky		
		X1	Y1	Z1	X2	Y2	Z2	X3	Y3	Z3	X4	Y4	Z4	X5	Y5	Z5	X6	Y6	Z6	X7	Y7	Z7	X8	Y8	Z8	X9	Y9	Z9	X10	Y10	Z10	X11	Y11	Z11	X12	Y12	Z12	X13	Y13	Z13	X14	Y14	Z14	X15	Y15	Z15	X16	Y16	Z16	X17	Y17	Z17	X18	Y18	Z18	X19	Y19	Z19	X20	Y20	Z20	X21	Y21	Z21	X22	Y22	Z22	X23	Y23	Z23	X24	Y24	Z24	X25	Y25	Z25	X26	Y26	Z26	X27	Y27	Z27
642	10.7	474.54819740431026	3607.3169516578646	521.191407537713	868.721518272449	3666.480353775959	544.5790827179404	1258.9866789621349	3749.5330384835615	619.022726420293	1318.8732641261495	3606.1231292712664	552.4747306488483	1313.6963927496056	3675.2550233480642	520.614726036911	1281.2564475150807	3730.7126264968065	621.5560917786555	476.1739905410163	3490.770275649605	718.6588062003934	885.7490384661288	3555.6272971295493	741.5104743589367	1244.0171921847943	3603.1228262561044	723.0156786199814	1312.4346458270556	3481.2189264513718	667.9567385025508	1276.228229740763	3452.476786419932	713.0008909310327	1267.7494887283603	3604.388880023148	699.0682464704382	-117.1298676339411	3522.887968705291	622.594596924266	-366.9227672926061	3470.398968482559	595.1058119852669	-233.92982928355477	3419.121548995834	573.839479791767	-23.910693944239924	3615.9483928898044	487.36506516500447	216.21837301574573	3591.551757359094	403.3896994835755	374.29543622844	3438.6605228703224	485.14743420073137	434.7194292907867	3387.414953426287	562.0992458376423	455.0838380452474	3404.0283278597967	583.8803577539043	476.9665236208491	3377.731276324856	555.9380828162588	-21.674324093358358	3450.9374119672148	746.7258200815309	228.1804178571898	3354.8112516054885	742.8064882371381	382.4662531291166	3373.262754132784	597.1992662797732	435.87406190234793	3408.674357171327	504.86599206102295	468.6909020779826	3433.096423597699	518.5465451954854	494.2738171094983	3394.165508245695	564.5649391885593
643	10.716666666666669	474.07345208029386	3606.704343875035	520.9881695633394	867.9809553121528	3666.125009166658	544.5320672676478	1258.4274755410956	3749.69955409752	619.1063399386371	1318.4693229256006	3605.7179963578387	552.1524889678597	1314.9105214739131	3675.6003815884787	520.6887501021582	1279.5348428526006	3727.5807859011497	620.8249238012397	474.90336062477223	3489.6319391954235	718.285362516486	884.7482720819099	3553.3649785273765	740.6084244289223	1243.3997659766785	3602.9753212028827	723.0636249972814	1311.8501883716672	3480.1000010239845	667.5857130567075	1276.340172742554	3452.8222792339984	713.3067373323618	1267.5666904634268	3604.086069802637	699.4657986130474	-116.73559959273646	3523.2222642996003	622.7433127616041	-366.8948781450183	3470.3906503399667	595.1166210454818	-234.01521170603377	3419.021713035746	573.7624913923155	-23.86574464724899	3619.3497023560863	488.14675687271574	215.37977035624758	3588.7345915016936	402.02967154244504	375.12352489099203	3438.9750872019886	485.3414009446626	434.4042514290219	3383.6464758848633	558.9693739217081	454.938461393634	3403.0903009765407	584.3201606210218	476.2758449464392	3374.378566493325	553.0435290286102	-20.850896753095064	3452.8947642167004	747.6654094742595	227.80798541700065	3354.700459360172	742.7261691253552	383.548597777277	3373.063770795236	598.321343969437	436.04149097367247	3407.5569083572873	504.92099968050184	468.6790527648483	3432.30032965439	519.5918964350049	493.45274655996	3393.467252275373	564.2969084461532
644	10.733333333333333	473.97015286483264	3606.7554797371135	521.0207702124194	867.9804765576786	3666.311709196767	544.6565011837583	1258.0003312384854	3748.778582889141	618.6119848395012	1317.2054879125512	3603.872923562012	550.5953160974818	1315.9540332392253	3675.7956579924808	520.9070595656844	1279.009707735895	3725.7525031010537	620.3955414205295	474.30339338900257	3489.3681071654787	718.2322505231907	884.0847701492481	3553.1221000617415	740.5896776476956	1243.636926693981	3603.990082736733	723.5641729520353	1309.690237873329	3474.9332358997267	666.335726258252	1275.244465294717	3450.7671705102125	711.4804144643441	1267.54628118167	3603.7715985344585	700.2599023308371	-117.09421568538762	3522.950453014822	622.6294741468273	-366.89235479821275	3470.396823572864	595.143256653727	-233.96689747215953	3418.8492180061785	573.6151285726704	-23.854841054049245	3621.1130463104078	488.553224106322	213.79196763180647	3587.3682521253686	400.24469143280226	375.4333839021386	3439.05560923912	485.39056721845157	433.9840471901425	3381.604669438765	557.224253390232	454.8546213247337	3402.5421039918133	584.5552987859594	474.24657155162436	3369.555339830844	549.33551249569	-20.46431196590257	3455.1576582326697	748.9861907691779	227.20762936487876	3354.586538318078	742.6613941091982	383.99465764031504	3372.198485979106	599.4669153156358	435.59335284682345	3406.8669488630158	504.480875074906	468.68074585786184	3431.673416987061	521.1487041893237	492.95789498826707	3393.0230534453713	564.1381603743109
645	10.75	474.0210401690982	3607.019364797392	521.1169278631174	868.0451831731481	3666.5574437993255	544.7768017895578	1257.597013470175	3747.4828091968757	617.8842313425814	1315.3814779188317	3601.3478927920414	548.429942415913	1315.7223053984985	3675.5805128139527	521.0565276516652	1280.327104293869	3727.5219390137386	620.9114132512956	474.2529084826155	3489.5772223340814	718.3029537963088	883.2742059802131	3554.341317576267	741.2090456163924	1244.0395462607303	3605.906172046567	724.4617114339762	1306.8203544775643	3467.807464968828	664.4732897423831	1273.8276110642382	3448.0110801758697	709.0555043023872	1267.532564345041	3603.7125699399694	700.8031414153975	-117.81066793917655	3522.3799436517747	622.3864929862696	-366.9090954045182	3470.41363472618	595.17528741914	-233.93139387185508	3418.6329567134812	573.443555899389	-23.913342896178243	3619.3373754541053	488.1813635446866	212.1416401125705	3587.969912455015	399.3399315199582	375.01115055016965	3438.84712783624	485.26448727999394	433.3263277102286	3379.8220660822153	555.6364884117598	454.82854418210025	3402.7431170588934	584.1852634241038	471.53214208604913	3365.88133992138	546.8720690439002	-20.598881745009834	3456.547408221423	749.8247873206959	226.80455688886582	3354.5387879516293	742.6418258898948	384.10824258918973	3371.6114202906347	600.0081496692605	435.08726642828026	3406.4691288335907	504.06465968514067	468.66426643867476	3431.407379630716	522.4693454370299	492.8263154576286	3392.9462281826495	564.1195192716245
646	10.766666666666667	474.06925486583975	3607.142020140927	521.1683185527344	867.6872388000052	3666.476830356032	544.7350077434685	1257.596587906331	3746.881412995266	617.5448174160566	1315.1812732137635	3601.5753840439165	548.5964435353887	1314.8212274557484	3675.2014460411356	521.1884016130952	1282.5761803079577	3731.1950586275016	621.9934533226462	474.24541045963724	3489.7142956589278	718.3118698406699	882.4919182210349	3555.1363417315124	741.546407775792	1244.0088986874048	3607.240777070859	725.126184866702	1304.903384722687	3464.0379635388545	663.7939287115598	1273.7915615186498	3447.679681811871	708.8692074434555	1267.5134172278315	3603.9904960332815	700.6682199420546	-118.2927874710337	3521.982048470444	622.2135156801425	-366.9305477904767	3470.4342204399436	595.1927558720233	-233.9539829782459	3418.747957714377	573.5617560787028	-23.993460076871898	3615.932530863239	487.4368216344586	211.04739619986245	3588.7406591000235	399.1887715874086	374.0656791630557	3438.423466851335	485.02324068044067	432.4207335489507	3377.4848493389436	553.8380465267364	454.83150823331925	3403.275942925737	583.5190235164769	469.55017866659324	3364.48179397297	546.2204371552305	-20.928927048634385	3456.8540372993402	750.013296086616	226.7912576085115	3354.5456622843158	742.6525014012544	384.4481292345189	3371.9488861361096	599.8930457444662	434.79555552206966	3406.1377966003643	503.787731225608	468.6347414442286	3431.4538314373963	523.1249105446959	492.832943534978	3393.03077285987	564.1543439867578
647	10.783333333333331	473.9786985814553	3606.839284204146	521.102557555191	866.9922679705611	3666.067293057844	544.5477871610213	1258.2093535668441	3747.0859366088375	617.6918322217222	1316.8718542826743	3605.214800739628	551.663924516739	1314.3366876310606	3675.1238824187626	521.3140498142529	1283.935968690436	3733.711373774729	622.732104649813	473.7801746391165	3489.3588165163746	718.1464569062027	882.1942581770538	3554.3714430779714	741.0571256993796	1243.7821907716586	3606.43076647275	724.7849312941486	1304.6819889843373	3466.423158442423	665.3413114954914	1274.9279384007273	3448.9773630544023	710.2126395927763	1267.5372171669014	3604.2190535189748	700.3504068894207	-118.43578149722093	3521.8405103803793	622.1428490272735	-366.94974992238343	3470.4545752795834	595.1916165863191	-234.0098146202541	3419.8921370432317	574.5582439073435	-24.028894123797848	3613.6452649818575	486.8842402128499	210.73550712249525	3588.7779444740127	399.2494880909809	373.2703198238201	3438.040679205273	484.8325301432634	431.98199541101195	3376.2101813800496	553.841791338812	454.84963158336063	3403.635594707598	583.1165514313859	470.10575043942094	3366.4703296952002	547.8822512225735	-21.102431483003826	3455.8599087890207	749.4585142650533	227.18987821534276	3354.618397702006	742.7133692786199	384.56870991005854	3372.297020446741	599.6797094646627	434.7393364297342	3406.0274457913583	503.7533776464589	468.61337645040663	3431.532526653211	523.2811165968021	492.8387575614653	3393.090353492535	564.1895411596388
